/* XPM */
static char *_a47172f8c914d5f811618ba62c2c27bNDYB4C1UeJbTOTVE[] = {
/* columns rows colors chars-per-pixel */
"32 32 146 2 ",
"   c None",
".  c gray13",
"X  c #222222",
"o  c gray14",
"O  c #252525",
"+  c gray15",
"@  c #272727",
"#  c #282828",
"$  c gray16",
"%  c #2A2A2A",
"&  c gray17",
"*  c #2C2C2C",
"=  c #2D2D2D",
"-  c gray18",
";  c #2F2F2F",
":  c gray19",
">  c #313131",
",  c #323232",
"<  c gray20",
"1  c #343434",
"2  c #353535",
"3  c gray21",
"4  c #373737",
"5  c gray22",
"6  c #393939",
"7  c #3A3A3A",
"8  c gray23",
"9  c #3C3C3C",
"0  c gray24",
"q  c #3E3E3E",
"w  c gray25",
"e  c #414141",
"r  c gray26",
"t  c #434343",
"y  c #444444",
"u  c gray27",
"i  c #464646",
"p  c gray28",
"a  c #484848",
"s  c #494949",
"d  c gray29",
"f  c #4B4B4B",
"g  c #4C4C4C",
"h  c gray30",
"j  c #4E4E4E",
"k  c gray31",
"l  c #505050",
"z  c #515151",
"x  c gray32",
"c  c #535353",
"v  c gray33",
"b  c #555555",
"n  c #565656",
"m  c gray34",
"M  c #585858",
"N  c gray35",
"B  c #5A5A5A",
"V  c #5B5B5B",
"C  c gray36",
"Z  c #5D5D5D",
"A  c gray37",
"S  c #5F5F5F",
"D  c #606060",
"F  c gray38",
"G  c #626262",
"H  c gray39",
"J  c #646464",
"K  c #656565",
"L  c gray40",
"P  c #676767",
"I  c #686868",
"U  c DimGray",
"Y  c #6A6A6A",
"T  c gray42",
"R  c #6C6C6C",
"E  c #6D6D6D",
"W  c gray43",
"Q  c #6F6F6F",
"!  c gray44",
"~  c #717171",
"^  c #727272",
"/  c gray45",
"(  c #747474",
")  c gray46",
"_  c #767676",
"`  c gray47",
"'  c #797979",
"]  c gray48",
"[  c #7B7B7B",
"{  c #7C7C7C",
"}  c gray49",
"|  c #7E7E7E",
" . c gray50",
".. c #808080",
"X. c #818181",
"o. c gray51",
"O. c #838383",
"+. c #848484",
"@. c gray52",
"#. c #868686",
"$. c gray53",
"%. c #888888",
"&. c #898989",
"*. c gray54",
"=. c #8B8B8B",
"-. c gray55",
";. c #8D8D8D",
":. c #8E8E8E",
">. c gray56",
",. c #909090",
"<. c gray57",
"1. c #929292",
"2. c #939393",
"3. c gray58",
"4. c #959595",
"5. c gray59",
"6. c #979797",
"7. c #989898",
"8. c gray60",
"9. c #9A9A9A",
"0. c #9B9B9B",
"q. c gray61",
"w. c #9D9D9D",
"e. c gray62",
"r. c #9F9F9F",
"t. c #A0A0A0",
"y. c gray63",
"u. c #A2A2A2",
"i. c gray64",
"p. c #A4A4A4",
"a. c #A5A5A5",
"s. c gray65",
"d. c #A7A7A7",
"f. c gray66",
"g. c #A9A9A9",
"h. c #AAAAAA",
"j. c gray67",
"k. c #ACACAC",
"l. c gray68",
"z. c #AEAEAE",
"x. c #AFAFAF",
"c. c gray69",
"v. c #B1B1B1",
"b. c #B2B2B2",
"n. c gray70",
"m. c #B4B4B4",
/* pixels */
"                                & &                             ",
"                      = , 1 8 8 0 8 0 1 , =                     ",
"                  , 1 8 t a x x x x x a u t 1 ,                 ",
"            @ & 1 0 a x M F J Q U Q U J C n k t 8 =             ",
"          & & 1 t k C U ^ [ X.X.@.@.X. .( Q F n a 8 ,           ",
"          = 1 u n J ^  .&.<.9.e.e.e.9.3.-.@.[ U C k 0 ,         ",
"        = 1 a M J [ &.3.e.t.g.g.k.k.g.s.t.9.-.X.^ C k 0 ,       ",
"      @ , t n U  .-.e.t.k.k.m.c.c.c.c.c.k.g.t.3.@.^ C a 8 =     ",
"      = 0 x J [ &.e.s.k.m.m.c.c.k.k.k.c.c.c.g.e.3.X.Q n u 1     ",
"    & 1 a C ^ &.e.s.c.m.m.k.g.g.s.s.s.g.k.k.k.k.e.<. .U x 0 =   ",
"    = 0 x U  .9.s.k.m.c.g.s.e.9.9.3.3.t.s.g.k.k.g.e.&.( C u 1   ",
"    , u C ( &.t.k.c.c.k.s.9.-.&.@.@.&.<.9.t.g.g.k.s.3. .J k 8   ",
"  & 1 k F [ 3.t.k.m.k.s.3.-.X. .X. . .X.-.9.t.g.g.g.3.&.^ n t , ",
"X @ 8 k U X.9.g.c.c.g.e.-.X. .[ [ [ [  .X.-.9.s.g.g.e.-.^ C t = ",
"X & 8 x U @.e.k.c.k.s.3.&. .[ [ [ [ [ [  .@.3.e.g.g.t.<.[ C u , ",
"X & 0 n Q &.t.k.c.k.t.<.X. .[ [ [ [ [ [  .X.-.e.s.g.s.<.[ F a , ",
"X & 0 x Q &.t.k.c.k.t.-.X.[ [ [ [ [ [ [  .X.-.e.s.g.s.<.[ F a , ",
". & 0 x U @.e.k.c.g.e.<.X. .[ [ [ [ [ [  .X.-.e.s.s.t.<.[ C u , ",
"  & 8 k U X.9.g.k.k.t.9.&.X.[ [ [ [ [ [ X.&.3.t.s.s.e.-.( M t = ",
"    1 a F [ <.t.k.k.g.e.-.@. . .[ [  . .@.-.9.t.s.t.3.@.Q x 0 = ",
"    , t M ^ @.e.k.k.k.s.e.-.&.@. . .X.&.-.9.t.s.s.t.<.[ F k 8   ",
"    & 8 x J  .<.t.g.k.s.t.9.3.-.&.&.-.3.9.t.s.g.t.3.&.^ M u ,   ",
"      , t M ^ @.9.s.g.k.g.s.e.9.9.9.9.e.t.s.s.t.e.-.[ F k 8 &   ",
"      & 8 k F ( @.9.t.g.g.g.s.t.t.t.s.t.s.s.e.9.<. .U n t ,     ",
"      & = t k F ( &.9.e.s.s.g.g.g.g.s.s.s.s.3.-.X.Q M a 8 &     ",
"        & , t x J ( X.<.9.e.t.s.t.t.t.e.3.3.&. .U M a 8 & @     ",
"          & , t k C Q [ X.&.<.3.9.9.<.<.&. .^ J M a 8 = @       ",
"            & , t a n F U ( [  . . . .( ^ J C x u 1 = @         ",
"              & = 8 t a n M F F J F F C n k u 0 , & @           ",
"                    = 8 0 u u k a k a u t 8 1 =                 ",
"                        = , 1 1 8 1 8 , = &                     ",
"                          & & = = = & & @                       "
};
